Coordinates
version=1
nRows=5
nColumns=63
inDegrees=yes

Units are S.I. units (second, meters, Newtons, ...)
If the header above contains a line with 'inDegrees', this indicates whether rotational values are in degrees (yes) or radians (no).

endheader
time	pelvis_tilt	pelvis_list	pelvis_rotation	pelvis_tx	pelvis_ty	pelvis_tz	hip_flexion_r	hip_adduction_r	hip_rotation_r	knee_angle_r	knee_angle_r_beta	ankle_angle_r	subtalar_angle_r	mtp_angle_r	hip_flexion_l	hip_adduction_l	hip_rotation_l	knee_angle_l	knee_angle_l_beta	ankle_angle_l	subtalar_angle_l	mtp_angle_l	L5_S1_Flex_Ext	L5_S1_Lat_Bending	L5_S1_axial_rotation	L4_L5_Flex_Ext	L4_L5_Lat_Bending	L4_L5_axial_rotation	L3_L4_Flex_Ext	L3_L4_Lat_Bending	L3_L4_axial_rotation	L2_L3_Flex_Ext	L2_L3_Lat_Bending	L2_L3_axial_rotation	L1_L2_Flex_Ext	L1_L2_Lat_Bending	L1_L2_axial_rotation	L1_T12_Flex_Ext	L1_T12_Lat_Bending	L1_T12_axial_rotation	Abs_r3	Abs_r2	Abs_r1	Abs_t1	Abs_t2	neck_flexion	neck_bending	neck_rotation	arm_flex_r	arm_add_r	arm_rot_r	elbow_flex_r	pro_sup_r	wrist_flex_r	wrist_dev_r	arm_flex_l	arm_add_l	arm_rot_l	elbow_flex_l	pro_sup_l	wrist_flex_l	wrist_dev_l
      4.66666667	      2.91939616	      4.08958797	     82.17961678	      0.16006510	      0.90131088	      0.45675212	    -13.40888499	      0.91893259	    -20.74180261	      7.99812097	      0.13959354	     30.91995491	     13.03524318	      0.00000000	    -15.89064871	     -2.12787877	      4.81807401	      0.19069486	      0.00332825	     32.39916726	     -9.83038840	      0.00000000	     -0.00880773	      0.54864058	     -0.08291476	     -0.01635683	      0.72969197	     -0.08809693	     -0.01447021	      1.33396470	     -0.08809693	     -0.01006635	      1.33396470	     -0.07255041	     -0.00817886	      1.11878786	     -0.06736824	     -0.00503274	      0.84984425	     -0.06218607	     -0.06291271	      6.20633192	     -0.46114701	      0.00000000	      0.00000000	     19.91899667	     -3.78250008	      6.82636914	      2.57730768	    -10.71483354	    109.22129022	     11.38457074	      9.69869472	      4.18152361	     -1.98737412	      4.68359886	     -2.21952902	    169.47242166	      3.04437566	     51.29105645	     -4.27280136	      0.99829258
      4.68333333	      2.83554250	      4.13695858	     81.87971478	      0.16040966	      0.90142095	      0.45653265	    -13.38917187	      0.72125929	    -20.64318685	      8.12151433	      0.14174717	     31.05282905	     13.23964346	      0.00000000	    -15.99300984	     -1.95518995	      4.40534665	      0.19059152	      0.00332645	     32.12196678	     -9.74536697	      0.00000000	     -0.01053332	      0.53951451	     -0.02265289	     -0.01956143	      0.71755430	     -0.02406870	     -0.01730520	      1.31177558	     -0.02406870	     -0.01203853	      1.31177558	     -0.01982128	     -0.00978124	      1.10017799	     -0.01840547	     -0.00601874	      0.83570798	     -0.01698967	     -0.07523847	      6.10309606	     -0.12598858	      0.00000000	      0.00000000	     19.85820294	     -3.66159830	      6.92396275	      2.49237524	    -10.73285022	    108.70072469	     11.39664767	      9.70274671	      4.35555766	     -1.79327295	      4.62763673	     -2.23808426	    169.45136104	      2.85331814	     51.53655922	     -3.98053329	      0.60865495
      4.70000000	      2.72923604	      4.19821453	     81.81814432	      0.16043612	      0.90152739	      0.45628519	    -13.46078844	      0.54437478	    -21.16804063	      8.14903181	      0.14222744	     31.10844438	     13.88702939	      0.00000000	    -16.06695283	     -1.80655507	      4.83814594	      0.18792510	      0.00327991	     31.65085025	    -10.56640199	      0.00000000	     -0.01330964	      0.52730067	     -0.01571134	     -0.02471734	      0.70130989	     -0.01669329	     -0.02186641	      1.28207885	     -0.01669329	     -0.01521159	      1.28207885	     -0.01374742	     -0.01235933	      1.07527152	     -0.01276546	     -0.00760513	      0.81678874	     -0.01178350	     -0.09506945	      5.96493063	     -0.08738174	      0.00000000	      0.00000000	     19.83226338	     -3.51216098	      7.12449329	      2.52853701	    -10.66993634	    109.94346571	     11.30760504	      8.56891040	      4.40268350	     -1.93377795	      4.62015212	     -2.28044370	    168.91903476	      2.97801321	     51.68792062	     -4.42704418	      1.00248617
      4.71666667	      2.68297127	      4.21895666	     81.54665697	      0.16082333	      0.90159916	      0.45610750	    -13.49340412	      0.47531435	    -20.31014038	      8.09372262	      0.14126211	     30.91727702	     13.02366715	      0.00000000	    -16.12806896	     -1.69491791	      3.77595140	      0.18995335	      0.00331531	     31.72691894	     -9.46954161	      0.00000000	     -0.01449278	      0.52149192	      0.02735932	     -0.02691454	      0.69358425	      0.02906928	     -0.02381019	      1.26795545	      0.02906928	     -0.01656380	      1.26795545	      0.02393941	     -0.01345799	      1.06342632	      0.02222945	     -0.00828117	      0.80779098	      0.02051949	     -0.10352047	      5.89922090	      0.15216435	      0.00000000	      0.00000000	     19.82982738	     -3.34593549	      7.37224418	      2.43745437	    -10.75003633	    108.66556554	     11.47692562	      9.58276519	      4.25093511	     -1.87805908	      4.52302091	     -2.31047867	    168.79995662	      2.90153542	     51.49620755	     -4.81802900	      1.34342114
      4.73333333	      2.61685575	      4.22986950	     81.38070841	      0.16112503	      0.90165583	      0.45590655	    -13.52436608	      0.38414730	    -20.13185378	      8.07627114	      0.14095752	     30.70739202	     12.70452047	      0.00000000	    -16.15430489	     -1.57590418	      3.16004420	      0.19400578	      0.00338604	     31.81185491	     -8.93292855	      0.00000000	     -0.01362459	      0.51213147	      0.05899032	     -0.02530223	      0.68113486	      0.06267721	     -0.02238384	      1.24519646	      0.06267721	     -0.01557155	      1.24519646	      0.05161653	     -0.01265180	      1.04433849	      0.04792963	     -0.00778509	      0.79329165	      0.04424274	     -0.09731910	      5.79333361	      0.32808644	      0.00000000	      0.00000000	     19.90588258	     -3.23491008	      7.58292228	      2.31748303	    -10.68313075	    108.03536308	     11.40007205	     10.24778333	      3.91962762	     -1.86423205	      4.54928975	     -2.35094583	    168.73757432	      3.02334034	     51.30227524	     -4.94172421	      1.58591911
